<svg width="32" height="31" viewBox="0 0 32 31" fill="none" xmlns="http://www.w3.org/2000/svg">
<path d="M1.7915 27.125L15.9998 2.58337L30.2082 27.125H1.7915ZM5.14984 25.1875H26.8498L15.9998 6.45837L5.14984 25.1875ZM16.129 23.3469C16.4089 23.3469 16.6403 23.2554 16.8233 23.0724C17.0063 22.8894 17.0978 22.658 17.0978 22.3782C17.0978 22.0983 17.0063 21.8669 16.8233 21.6839C16.6403 21.5009 16.4089 21.4094 16.129 21.4094C15.8491 21.4094 15.6177 21.5009 15.4347 21.6839C15.2517 21.8669 15.1603 22.0983 15.1603 22.3782C15.1603 22.658 15.2517 22.8894 15.4347 23.0724C15.6177 23.2554 15.8491 23.3469 16.129 23.3469ZM15.1603 19.7625H17.0978V12.5292H15.1603V19.7625Z" fill="#5F614A"/>
</svg>
