<svg width="343" height="80" viewBox="0 0 343 80" fill="none" xmlns="http://www.w3.org/2000/svg">
<path d="M80 40C80 62.0914 62.0914 80 40 80C17.9086 80 0 62.0914 0 40C0 17.9086 17.9086 0 40 0C62.0914 0 80 17.9086 80 40Z" fill="url(#paint0_linear_328_5)"/>
<path d="M90 40C90 53.8071 78.8071 65 65 65C51.1929 65 40 53.8071 40 40C40 26.1929 51.1929 15 65 15C78.8071 15 90 26.1929 90 40Z" fill="white"/>
<path d="M64.056 22.344C67.448 22.344 70.408 23.032 72.936 24.408C75.496 25.784 77.48 27.768 78.888 30.36C80.296 32.92 81 36.04 81 39.72C81 43.304 80.28 46.44 78.84 49.128C77.4 51.816 75.384 53.912 72.792 55.416C70.232 56.92 67.304 57.672 64.008 57.672C60.616 57.672 57.64 56.984 55.08 55.608C52.552 54.232 50.584 52.248 49.176 49.656C47.768 47.064 47.064 43.944 47.064 40.296C47.064 36.712 47.784 33.576 49.224 30.888C50.696 28.2 52.696 26.104 55.224 24.6C57.784 23.096 60.728 22.344 64.056 22.344ZM63.864 23.208C62.072 23.208 60.504 23.928 59.16 25.368C57.848 26.808 56.824 28.792 56.088 31.32C55.384 33.848 55.032 36.776 55.032 40.104C55.032 43.496 55.432 46.456 56.232 48.984C57.064 51.48 58.168 53.416 59.544 54.792C60.952 56.136 62.504 56.808 64.2 56.808C65.992 56.808 67.544 56.088 68.856 54.648C70.2 53.208 71.224 51.224 71.928 48.696C72.664 46.136 73.032 43.208 73.032 39.912C73.032 36.488 72.616 33.528 71.784 31.032C70.984 28.536 69.88 26.616 68.472 25.272C67.096 23.896 65.56 23.208 63.864 23.208Z" fill="#141414"/>
<path d="M93.9585 24.312V32.184H99.6225V33.144H93.9585V52.536C93.9585 53.496 94.1345 54.184 94.4865 54.6C94.8385 54.984 95.3665 55.176 96.0705 55.176C96.6465 55.176 97.2225 54.968 97.7985 54.552C98.3745 54.104 98.8865 53.352 99.3345 52.296L100.15 52.728C99.6385 54.168 98.8545 55.352 97.7985 56.28C96.7745 57.208 95.3665 57.672 93.5745 57.672C92.5185 57.672 91.5905 57.528 90.7905 57.24C89.9905 56.984 89.3185 56.584 88.7745 56.04C88.0705 55.336 87.6065 54.472 87.3825 53.448C87.1585 52.392 87.0465 51.032 87.0465 49.368V33.144H83.0145V32.184H87.0465V25.848C88.3905 25.848 89.6225 25.736 90.7425 25.512C91.8945 25.256 92.9665 24.856 93.9585 24.312Z" fill="#141414"/>
<path d="M107.714 57.336C106.274 57.336 105.074 57.064 104.114 56.52C103.154 55.976 102.45 55.256 102.002 54.36C101.554 53.432 101.329 52.424 101.329 51.336C101.329 49.96 101.634 48.84 102.242 47.976C102.882 47.112 103.697 46.408 104.689 45.864C105.681 45.32 106.722 44.872 107.81 44.52C108.93 44.168 109.986 43.832 110.978 43.512C112.002 43.16 112.817 42.76 113.425 42.312L114.385 40.488V36.744C114.385 35.912 114.241 35.176 113.953 34.536C113.697 33.864 113.281 33.352 112.705 33C112.161 32.648 111.442 32.472 110.546 32.472C109.906 32.472 109.266 32.568 108.626 32.76C107.986 32.92 107.458 33.208 107.042 33.624C107.938 33.944 108.625 34.44 109.105 35.112C109.617 35.752 109.874 36.488 109.874 37.32C109.874 38.408 109.49 39.272 108.722 39.912C107.986 40.552 107.105 40.872 106.081 40.872C104.929 40.872 104.049 40.52 103.441 39.816C102.865 39.08 102.577 38.2 102.577 37.176C102.577 36.248 102.801 35.48 103.249 34.872C103.729 34.264 104.385 33.688 105.217 33.144C106.113 32.632 107.186 32.232 108.434 31.944C109.714 31.656 111.09 31.512 112.562 31.512C114.034 31.512 115.362 31.672 116.546 31.992C117.73 32.28 118.721 32.824 119.521 33.624C120.257 34.36 120.738 35.272 120.962 36.36C121.186 37.416 121.298 38.76 121.298 40.392V53.448C121.298 54.248 121.377 54.808 121.537 55.128C121.697 55.416 121.97 55.56 122.354 55.56C122.642 55.56 122.914 55.48 123.17 55.32C123.458 55.16 123.761 54.968 124.081 54.744L124.562 55.56C123.89 56.136 123.106 56.584 122.21 56.904C121.346 57.192 120.37 57.336 119.282 57.336C118.098 57.336 117.154 57.176 116.45 56.856C115.746 56.504 115.233 56.04 114.913 55.464C114.625 54.888 114.481 54.216 114.481 53.448C113.713 54.664 112.786 55.624 111.698 56.328C110.61 57 109.282 57.336 107.714 57.336ZM111.121 54.264C111.761 54.264 112.338 54.12 112.85 53.832C113.394 53.512 113.905 53 114.385 52.296V42.456C114.097 42.936 113.698 43.368 113.186 43.752C112.674 44.136 112.129 44.536 111.553 44.952C110.977 45.336 110.418 45.768 109.874 46.248C109.362 46.728 108.946 47.32 108.626 48.024C108.306 48.728 108.146 49.576 108.146 50.568C108.146 51.816 108.418 52.744 108.962 53.352C109.506 53.96 110.225 54.264 111.121 54.264Z" fill="#141414"/>
<path d="M148.648 32.184V33.144C148.04 33.304 147.465 33.688 146.921 34.296C146.377 34.872 145.849 35.864 145.337 37.272L138.329 57.096C137.817 57.064 137.289 57.048 136.745 57.048C136.233 57.048 135.72 57.064 135.208 57.096L126.664 35.88C126.152 34.632 125.641 33.88 125.129 33.624C124.649 33.336 124.233 33.192 123.881 33.192V32.184C124.905 32.248 125.961 32.312 127.049 32.376C128.169 32.408 129.385 32.424 130.697 32.424C131.689 32.424 132.728 32.408 133.816 32.376C134.936 32.312 135.976 32.248 136.936 32.184V33.192C136.264 33.192 135.657 33.224 135.113 33.288C134.601 33.352 134.249 33.56 134.057 33.912C133.865 34.264 133.896 34.888 134.152 35.784L139.768 50.664L139.288 51.336L143.081 40.824C143.689 39.096 143.944 37.688 143.848 36.6C143.752 35.48 143.4 34.648 142.792 34.104C142.184 33.528 141.368 33.208 140.344 33.144V32.184C140.824 32.216 141.337 32.248 141.881 32.28C142.457 32.28 143 32.296 143.512 32.328C144.056 32.328 144.536 32.328 144.952 32.328C145.592 32.328 146.265 32.312 146.969 32.28C147.673 32.248 148.232 32.216 148.648 32.184Z" fill="#141414"/>
<path d="M156.079 19.8C157.423 19.8 158.479 20.136 159.247 20.808C160.047 21.448 160.447 22.344 160.447 23.496C160.447 24.648 160.047 25.56 159.247 26.232C158.479 26.872 157.423 27.192 156.079 27.192C154.735 27.192 153.663 26.872 152.863 26.232C152.095 25.56 151.712 24.648 151.712 23.496C151.712 22.344 152.095 21.448 152.863 20.808C153.663 20.136 154.735 19.8 156.079 19.8ZM159.824 31.656V52.536C159.824 53.88 160.047 54.792 160.495 55.272C160.975 55.752 161.776 55.992 162.896 55.992V57C162.32 56.968 161.424 56.936 160.208 56.904C158.992 56.84 157.76 56.808 156.512 56.808C155.264 56.808 153.999 56.84 152.719 56.904C151.439 56.936 150.479 56.968 149.839 57V55.992C150.959 55.992 151.743 55.752 152.191 55.272C152.671 54.792 152.911 53.88 152.911 52.536V37.416C152.911 35.976 152.688 34.92 152.24 34.248C151.824 33.544 151.023 33.192 149.839 33.192V32.184C150.863 32.28 151.856 32.328 152.816 32.328C154.16 32.328 155.407 32.28 156.559 32.184C157.743 32.056 158.832 31.88 159.824 31.656Z" fill="#141414"/>
<path d="M177.364 31.512C179.7 31.512 181.748 31.944 183.508 32.808C185.268 33.672 186.644 35.064 187.636 36.984C188.628 38.904 189.124 41.448 189.124 44.616C189.124 47.784 188.628 50.328 187.636 52.248C186.644 54.136 185.268 55.512 183.508 56.376C181.748 57.24 179.7 57.672 177.364 57.672C175.092 57.672 173.06 57.24 171.268 56.376C169.508 55.512 168.116 54.136 167.092 52.248C166.1 50.328 165.604 47.784 165.604 44.616C165.604 41.448 166.1 38.904 167.092 36.984C168.116 35.064 169.508 33.672 171.268 32.808C173.06 31.944 175.092 31.512 177.364 31.512ZM177.364 32.472C176.084 32.472 175.012 33.432 174.148 35.352C173.284 37.24 172.852 40.328 172.852 44.616C172.852 48.904 173.284 51.992 174.148 53.88C175.012 55.768 176.084 56.712 177.364 56.712C178.676 56.712 179.748 55.768 180.58 53.88C181.444 51.992 181.876 48.904 181.876 44.616C181.876 40.328 181.444 37.24 180.58 35.352C179.748 33.432 178.676 32.472 177.364 32.472Z" fill="#141414"/>
<path d="M228.86 61.032V65.784H205.34V61.032H228.86Z" fill="#141414"/>
<path d="M245.007 22.392C246.895 22.392 248.351 22.6 249.375 23.016C250.399 23.4 251.279 23.816 252.015 24.264C252.399 24.488 252.703 24.664 252.927 24.792C253.183 24.888 253.423 24.936 253.647 24.936C253.967 24.936 254.191 24.76 254.319 24.408C254.479 24.056 254.607 23.528 254.703 22.824H255.807C255.775 23.432 255.727 24.168 255.663 25.032C255.631 25.864 255.599 26.968 255.567 28.344C255.567 29.72 255.567 31.528 255.567 33.768H254.463C254.335 32.104 253.951 30.488 253.311 28.92C252.671 27.352 251.759 26.072 250.575 25.08C249.423 24.056 247.999 23.544 246.303 23.544C244.767 23.544 243.503 23.976 242.511 24.84C241.519 25.704 241.023 26.904 241.023 28.44C241.023 29.72 241.343 30.824 241.983 31.752C242.623 32.648 243.551 33.528 244.767 34.392C246.015 35.256 247.519 36.296 249.279 37.512C250.815 38.504 252.191 39.496 253.407 40.488C254.623 41.48 255.599 42.6 256.335 43.848C257.071 45.096 257.439 46.584 257.439 48.312C257.439 50.424 256.879 52.168 255.759 53.544C254.671 54.92 253.231 55.96 251.439 56.664C249.647 57.336 247.679 57.672 245.535 57.672C243.551 57.672 241.967 57.48 240.783 57.096C239.599 56.712 238.607 56.312 237.807 55.896C237.103 55.448 236.559 55.224 236.175 55.224C235.855 55.224 235.615 55.4 235.455 55.752C235.327 56.104 235.215 56.632 235.119 57.336H234.015C234.079 56.568 234.111 55.672 234.111 54.648C234.143 53.624 234.159 52.296 234.159 50.664C234.191 49 234.207 46.904 234.207 44.376H235.311C235.439 46.488 235.791 48.472 236.367 50.328C236.975 52.152 237.887 53.624 239.103 54.744C240.351 55.864 241.999 56.424 244.047 56.424C245.167 56.424 246.159 56.232 247.023 55.848C247.919 55.432 248.639 54.824 249.183 54.024C249.727 53.224 249.999 52.232 249.999 51.048C249.999 49.704 249.679 48.536 249.039 47.544C248.431 46.552 247.583 45.624 246.495 44.76C245.439 43.896 244.207 43.016 242.799 42.12C241.295 41.128 239.887 40.136 238.575 39.144C237.263 38.152 236.207 37.016 235.407 35.736C234.639 34.456 234.255 32.936 234.255 31.176C234.255 29.16 234.751 27.512 235.743 26.232C236.767 24.92 238.095 23.96 239.727 23.352C241.391 22.712 243.151 22.392 245.007 22.392Z" fill="#141414"/>
<path d="M270.021 19.416V52.536C270.021 53.88 270.229 54.792 270.645 55.272C271.093 55.752 271.845 55.992 272.901 55.992V57C272.293 56.968 271.397 56.936 270.213 56.904C269.061 56.84 267.877 56.808 266.661 56.808C265.413 56.808 264.149 56.84 262.869 56.904C261.621 56.936 260.677 56.968 260.037 57V55.992C261.157 55.992 261.941 55.752 262.389 55.272C262.869 54.792 263.109 53.88 263.109 52.536V25.176C263.109 23.736 262.885 22.68 262.437 22.008C262.021 21.304 261.221 20.952 260.037 20.952V19.944C261.061 20.04 262.053 20.088 263.013 20.088C264.325 20.088 265.573 20.04 266.757 19.944C267.941 19.816 269.029 19.64 270.021 19.416ZM285.669 32.184V33.144C284.677 33.336 283.685 33.752 282.693 34.392C281.701 35.032 280.693 35.848 279.669 36.84L275.973 40.68L276.453 39.768L284.661 53.496C285.013 54.072 285.381 54.584 285.765 55.032C286.149 55.48 286.613 55.8 287.157 55.992V57C286.677 56.968 285.957 56.936 284.997 56.904C284.037 56.84 283.077 56.808 282.117 56.808C280.933 56.808 279.749 56.84 278.565 56.904C277.381 56.936 276.501 56.968 275.925 57V55.992C276.565 55.992 276.997 55.848 277.221 55.56C277.445 55.24 277.413 54.84 277.125 54.36L272.373 45.768C271.989 45.16 271.605 44.776 271.221 44.616C270.869 44.424 270.389 44.312 269.781 44.28V43.368C270.453 43.304 271.029 43.192 271.509 43.032C272.021 42.872 272.485 42.568 272.901 42.12L276.549 38.568C277.637 37.544 278.181 36.632 278.181 35.832C278.181 35.032 277.829 34.392 277.125 33.912C276.453 33.432 275.557 33.176 274.437 33.144V32.184C275.333 32.216 276.309 32.248 277.365 32.28C278.421 32.312 279.317 32.328 280.053 32.328C280.693 32.328 281.365 32.328 282.069 32.328C282.805 32.296 283.493 32.28 284.133 32.28C284.773 32.248 285.285 32.216 285.669 32.184Z" fill="#141414"/>
<path d="M294.792 57.336C293.352 57.336 292.152 57.064 291.192 56.52C290.232 55.976 289.528 55.256 289.08 54.36C288.632 53.432 288.408 52.424 288.408 51.336C288.408 49.96 288.712 48.84 289.32 47.976C289.96 47.112 290.776 46.408 291.768 45.864C292.76 45.32 293.8 44.872 294.888 44.52C296.008 44.168 297.064 43.832 298.056 43.512C299.08 43.16 299.896 42.76 300.504 42.312C301.144 41.832 301.464 41.224 301.464 40.488V36.744C301.464 35.912 301.32 35.176 301.032 34.536C300.776 33.864 300.36 33.352 299.784 33C299.24 32.648 298.52 32.472 297.624 32.472C296.984 32.472 296.344 32.568 295.704 32.76C295.064 32.92 294.536 33.208 294.12 33.624C295.016 33.944 295.704 34.44 296.184 35.112C296.696 35.752 296.952 36.488 296.952 37.32C296.952 38.408 296.568 39.272 295.8 39.912C295.064 40.552 294.184 40.872 293.16 40.872C292.008 40.872 291.128 40.52 290.52 39.816C289.944 39.08 289.656 38.2 289.656 37.176C289.656 36.248 289.88 35.48 290.328 34.872C290.808 34.264 291.464 33.688 292.296 33.144C293.192 32.632 294.264 32.232 295.512 31.944C296.792 31.656 298.168 31.512 299.64 31.512C301.112 31.512 302.44 31.672 303.624 31.992C304.808 32.28 305.8 32.824 306.6 33.624C307.336 34.36 307.816 35.272 308.04 36.36C308.264 37.416 308.376 38.76 308.376 40.392V53.448C308.376 54.248 308.456 54.808 308.616 55.128C308.776 55.416 309.048 55.56 309.432 55.56C309.72 55.56 309.992 55.48 310.248 55.32C310.536 55.16 310.84 54.968 311.16 54.744L311.64 55.56C310.968 56.136 310.184 56.584 309.288 56.904C308.424 57.192 307.448 57.336 306.36 57.336C305.176 57.336 304.232 57.176 303.528 56.856C302.824 56.504 302.312 56.04 301.992 55.464C301.704 54.888 301.56 54.216 301.56 53.448C300.792 54.664 299.864 55.624 298.776 56.328C297.688 57 296.36 57.336 294.792 57.336ZM298.2 54.264C298.84 54.264 299.416 54.12 299.928 53.832C300.472 53.512 300.984 53 301.464 52.296V42.456C301.176 42.936 300.776 43.368 300.264 43.752C299.752 44.136 299.208 44.536 298.632 44.952C298.056 45.336 297.496 45.768 296.952 46.248C296.44 46.728 296.024 47.32 295.704 48.024C295.384 48.728 295.224 49.576 295.224 50.568C295.224 51.816 295.496 52.744 296.04 53.352C296.584 53.96 297.304 54.264 298.2 54.264Z" fill="#141414"/>
<path d="M330.051 19.464C331.395 19.464 332.531 19.544 333.459 19.704C334.419 19.832 335.235 20.024 335.907 20.28C336.579 20.536 337.187 20.84 337.731 21.192C338.275 21.512 338.739 21.96 339.123 22.536C339.507 23.112 339.699 23.752 339.699 24.456C339.699 25.576 339.315 26.472 338.547 27.144C337.779 27.816 336.659 28.152 335.187 28.152C333.779 28.152 332.675 27.832 331.875 27.192C331.075 26.52 330.675 25.624 330.675 24.504C330.675 23.672 330.947 22.952 331.491 22.344C332.067 21.704 332.851 21.24 333.843 20.952C333.523 20.76 333.075 20.616 332.499 20.52C331.955 20.392 331.363 20.328 330.723 20.328C329.251 20.328 328.003 20.648 326.979 21.288C325.987 21.928 325.187 22.792 324.579 23.88C324.131 24.68 323.795 25.688 323.571 26.904C323.379 28.12 323.283 29.896 323.283 32.232H328.995C330.659 32.232 332.083 32.216 333.267 32.184C334.451 32.152 335.507 32.104 336.435 32.04C337.395 31.944 338.339 31.816 339.267 31.656V52.536C339.267 53.88 339.523 54.792 340.035 55.272C340.547 55.752 341.411 55.992 342.627 55.992V57C341.987 56.968 341.027 56.936 339.747 56.904C338.499 56.84 337.235 56.808 335.955 56.808C334.707 56.808 333.443 56.84 332.163 56.904C330.883 56.936 329.923 56.968 329.283 57V55.992C330.403 55.992 331.187 55.752 331.635 55.272C332.115 54.792 332.355 53.88 332.355 52.536V37.416C332.355 35.976 332.115 34.92 331.635 34.248C331.155 33.544 330.275 33.192 328.995 33.192H323.283V52.536C323.283 53.912 323.619 54.84 324.291 55.32C324.963 55.768 325.907 55.992 327.123 55.992V57C326.387 56.968 325.347 56.936 324.003 56.904C322.691 56.84 321.347 56.808 319.971 56.808C318.563 56.808 317.219 56.84 315.939 56.904C314.659 56.936 313.683 56.968 313.011 57V55.992C314.227 55.992 315.091 55.752 315.603 55.272C316.115 54.792 316.371 53.88 316.371 52.536V33.192H312.819V32.232H316.371C316.371 30.216 316.691 28.424 317.331 26.856C317.971 25.256 318.915 23.864 320.163 22.68C321.315 21.624 322.755 20.824 324.483 20.28C326.243 19.736 328.099 19.464 330.051 19.464Z" fill="#141414"/>
<defs>
<linearGradient id="paint0_linear_328_5" x1="171.314" y1="0" x2="171.314" y2="80" gradientUnits="userSpaceOnUse">
<stop stop-color="#BABCFA"/>
<stop offset="1" stop-color="#2931F8"/>
</linearGradient>
</defs>
</svg>
